<?xml version="1.0" encoding="utf-8"?>
<!-- Generator: Adobe Illustrator 28.0.0, SVG Export Plug-In . SVG Version: 6.00 Build 0)  -->
<svg version="1.1" id="Шар_1" xmlns="http://www.w3.org/2000/svg" xmlns:xlink="http://www.w3.org/1999/xlink" x="0px" y="0px"
	 viewBox="0 0 1080 1080" style="enable-background:new 0 0 1080 1080;" xml:space="preserve">
<style type="text/css">
	.st0{fill:#108EC9;}
	.st1{fill:#12232B;}
	.st2{fill-rule:evenodd;clip-rule:evenodd;fill:#12232B;}
	.st3{fill-rule:evenodd;clip-rule:evenodd;fill:#0C0E10;}
	.st4{fill-rule:evenodd;clip-rule:evenodd;fill:#108EC9;}
	.st5{fill:#FFFFFF;}
	.st6{fill-rule:evenodd;clip-rule:evenodd;fill:#FFFFFF;}
</style>
<path class="st0" d="M605.34,832.43c-7.48,1.33-15.05,2.41-22.68,3.23V701.35l36.99-36.91v-31.52h22.68v40.85l-36.99,36.88v98.7
	V832.43z M495.81,832.8v-23.05v-99.1l-37.02-36.88v-40.85h22.68v31.52l37.02,36.91v134.5C510.83,835.12,503.26,834.07,495.81,832.8
	L495.81,832.8z M562.28,837.13c-3.88,0.17-8.31,0.26-12.76,0.26c-3.71,0-7.43-0.06-10.77-0.17l0.28-171.75
	c-1.67-0.96-3.2-2.13-4.56-3.49c-3.8-3.77-6.15-9.01-6.15-14.8c0-5.78,2.35-11.03,6.15-14.83c3.8-3.8,9.01-6.12,14.8-6.12
	c5.81,0,11.03,2.32,14.83,6.12c3.8,3.8,6.12,9.04,6.12,14.83c0,5.78-2.32,11.03-6.12,14.8c-0.71,0.74-1.47,1.39-2.3,1.98
	L562.28,837.13z"/>
<g>
	<g>
		<path class="st5" d="M259.77,524.95c0-56.97,16.45-110.09,44.84-154.9c-6.41-4.17-11.83-9.82-15.68-16.6h-0.59
			c-32.38,49.23-51.25,108.16-51.25,171.5c0,86.26,34.98,164.38,91.5,220.93c41.64,41.64,94.99,71.57,154.69,84.47v-23.24
			c-53.4-12.5-101.14-39.77-138.64-77.27C292.2,677.4,259.77,604.98,259.77,524.95z M849.09,435.83
			c-19.28-64.86-59.02-120.87-111.74-160.58c-52.3-39.4-117.35-62.76-187.82-62.76c-68.49,0-131.84,22.07-183.35,59.47h41.98
			c41.83-23.42,90.04-36.79,141.37-36.79c65.4,0,125.72,21.63,174.19,58.14c49.63,37.42,86.88,90.4,104.43,151.68l0.85,2.95
			l82.46,78.58l-82.86,78.55l-0.85,2.83c-18.31,60.6-55.76,112.85-105.28,149.67c-31.01,23.07-66.78,40.08-105.59,49.29v23.24
			c43.82-9.64,84.19-28.46,119.06-54.37c52.64-39.15,92.61-94.39,112.62-158.43l95.73-90.74L849.09,435.83z"/>
	</g>
</g>
<path class="st6" d="M274.56,340.65c-1.76,5.7-7.09,9.84-13.32,9.84h-4.54c-7.68,0-13.97-6.29-13.97-13.97v-15.45
	c0-6.09,4-11.34,9.5-13.21v-11.2h-18.09v-11.88h48.53v11.88h-19.02v10.66c5.16,0.91,9.35,4.68,10.8,9.58h22.59
	c4.96-14.17,18.43-24.32,34.27-24.32s29.31,10.15,34.27,24.32h22.88c1.45-4.9,5.64-8.67,10.8-9.58v-10.66h-18.99v-11.88h48.5v11.88
	h-18.09v11.2c5.53,1.87,9.5,7.11,9.5,13.21v15.45c0,7.68-6.26,13.97-13.95,13.97h-4.54c-6.26,0-11.57-4.14-13.35-9.84h-22.79
	c-4.79,14.29-18.31,24.52-34.24,24.52c-15.93,0-29.45-10.23-34.1-24.52H274.56z"/>
<polygon class="st6" points="538.41,352.35 386.33,454.85 325.53,454.85 538.41,311.53 "/>
<path class="st5" d="M538.58,352.58L386.42,455.14H324.6c71.38-48.05,142.72-96.12,214.1-144.14v41.5L538.58,352.58z M386.25,454.57
	l151.88-102.39v-40.14L326.44,454.57H386.25z"/>
<polygon class="st6" points="681.85,667.51 681.85,529.15 719.24,528.53 719.24,704.9 623.34,705.47 662.09,667.51 "/>
<polygon class="st6" points="418.56,667.51 438.32,667.51 474.58,704.9 381.18,704.9 381.18,447.71 418.56,423.73 "/>
<path class="st0" d="M736.75,513.9c-10.74-48.16-31.8-87.02-60.69-115.97c-30.33-30.44-69.02-49.72-113.27-57.17v34.5
	c34.92,6.94,65.34,22.62,89.23,46.57c22.93,22.99,40.08,53.8,49.78,92.07H736.75z M804.47,513.9
	c-12.9-69.17-41.44-124.41-81.67-164.78c-42.26-42.38-97.11-68.06-160.02-76v34.24c53.6,7.57,100.15,29.76,135.98,65.68
	c34.24,34.36,58.99,81.55,71.06,140.85H804.47z M675.21,513.9H639.3c-7.14-18.82-17.21-34.5-29.59-46.94
	c-13.1-13.12-28.94-22.73-46.91-28.71v-35.38c27.33,7.09,51.42,20.58,70.95,40.17C652.14,461.49,666.34,485.21,675.21,513.9
	L675.21,513.9z"/>
<path class="st6" d="M577.05,513.39c-7.06-7.06-16.81-11.42-27.58-11.42s-20.52,4.37-27.58,11.42
	c-7.06,7.06-11.42,16.78-11.42,27.55s4.37,20.52,11.42,27.58c7.06,7.06,16.81,11.42,27.58,11.42s20.52-4.37,27.58-11.42
	s11.42-16.81,11.42-27.58S584.11,520.45,577.05,513.39L577.05,513.39z M563.36,491.02c4.42,1.22,8.59,3.03,12.44,5.3l-0.06-0.03
	l12.53-10.37l8.79,8.79l8.79,8.79l-10.71,12.95l-0.03-0.06c1.98,3.74,3.57,7.71,4.62,11.91v-0.03l17.06,1.62v12.42v12.42l-17.86,1.7
	v-0.03c-1.16,3.77-2.75,7.34-4.71,10.69l11.62,14.03l-8.79,8.79l-8.79,8.79l-14.46-11.99l0.03-0.03c-3.2,1.73-6.63,3.12-10.23,4.14
	l0.06-0.03l-1.79,18.85h-12.42h-12.42l-1.79-18.85c-3.54-0.99-6.94-2.38-10.15-4.08h0.03l-14.49,11.99l-8.79-8.79l-8.79-8.79
	l11.65-14.03v0.03c-1.96-3.34-3.54-6.94-4.73-10.71v0.03l-17.86-1.7V542.3v-12.42l17.09-1.62l-0.03,0.09
	c1.05-4.22,2.61-8.22,4.62-11.93v0.03l-10.74-12.95l8.79-8.79l8.79-8.79l12.53,10.37l0,0c3.83-2.24,7.97-4.03,12.36-5.24l0,0
	l1.5-16.04h12.42h12.42l1.53,16.04L563.36,491.02z"/>
<path class="st5" d="M576.28,514.13c-3.49-3.49-7.65-6.32-12.3-8.25c-4.45-1.84-9.35-2.86-14.51-2.86c-5.13,0-10.03,1.02-14.51,2.86
	c-4.62,1.93-8.82,4.76-12.3,8.25c-3.51,3.51-6.32,7.68-8.25,12.33c-1.84,4.45-2.86,9.35-2.86,14.49c0,5.16,1.02,10.06,2.86,14.51
	c1.93,4.65,4.73,8.82,8.25,12.33c3.49,3.49,7.68,6.32,12.3,8.22c4.48,1.87,9.38,2.89,14.51,2.89c5.16,0,10.06-1.02,14.51-2.89
	c4.65-1.9,8.82-4.73,12.3-8.22c3.51-3.51,6.32-7.68,8.25-12.33c1.84-4.45,2.86-9.35,2.86-14.51c0-5.13-1.02-10.03-2.86-14.51
	C582.61,521.81,579.8,517.64,576.28,514.13L576.28,514.13z M564.78,503.92c4.93,2.04,9.33,5.02,13.01,8.7
	c3.71,3.68,6.69,8.11,8.7,13.01c1.96,4.73,3.03,9.89,3.03,15.31c0,5.44-1.08,10.6-3.03,15.34c-2.01,4.9-4.99,9.33-8.7,13.01
	c-3.68,3.68-8.08,6.66-13.01,8.7c-4.71,1.96-9.89,3.03-15.31,3.03s-10.6-1.08-15.31-3.03c-4.9-2.04-9.33-5.02-13.01-8.7
	c-3.68-3.69-6.66-8.11-8.7-13.01c-1.96-4.73-3.03-9.89-3.03-15.34c0-5.41,1.08-10.57,3.03-15.31c2.04-4.9,5.02-9.33,8.7-13.01
	c3.69-3.69,8.11-6.66,13.01-8.7c4.71-1.96,9.89-3.03,15.31-3.03S560.07,501.97,564.78,503.92L564.78,503.92z M564.38,490.23
	c1.98,0.57,3.91,1.28,5.78,2.07c1.9,0.79,3.71,1.7,5.47,2.72l12.73-10.52l18.94,18.94l-10.91,13.15c0.88,1.67,1.67,3.43,2.38,5.24
	c0.71,1.79,1.3,3.6,1.79,5.47l17.29,1.62v26.79l-18.11,1.7c-0.54,1.67-1.16,3.29-1.87,4.88c-0.71,1.59-1.5,3.15-2.35,4.68
	l11.79,14.23l-18.94,18.94l-14.68-12.16c-1.45,0.74-2.92,1.42-4.42,2.01c-1.5,0.62-3.03,1.16-4.59,1.62l-1.81,19.08h-26.76
	l-1.79-19.08c-1.56-0.45-3.12-0.99-4.59-1.62c-1.5-0.6-3-1.28-4.42-2.01l-14.71,12.16l-18.94-18.94l11.79-14.23
	c-0.85-1.53-1.64-3.06-2.32-4.65c-0.71-1.62-1.33-3.23-1.9-4.9l-18.11-1.7v-26.79l17.29-1.62c0.48-1.87,1.08-3.68,1.79-5.44
	c0.68-1.81,1.5-3.57,2.38-5.27l-10.91-13.15l18.94-18.94l12.73,10.52c1.76-1.02,3.6-1.93,5.47-2.72c1.87-0.79,3.8-1.5,5.78-2.07
	l1.53-16.3h26.76L564.38,490.23z M569.34,494.26c-2.01-0.88-4.08-1.59-6.21-2.18l-0.06-0.03l0.26-0.99l-0.99,0.08l-1.42-15.08h-22.9
	l-1.42,15.08l-1.02-0.08l0.28,0.99l-1.53,0.48v-0.03c-1.62,0.51-3.17,1.08-4.73,1.76c-2.01,0.85-4,1.84-5.87,2.98l-0.57-0.91
	l-0.65,0.79l-11.79-9.75l-16.19,16.19l10.09,12.22l-0.77,0.65l0.91,0.48c-0.99,1.84-1.87,3.77-2.64,5.73
	c-0.74,1.9-1.36,3.86-1.87,5.9l-0.03,0.09l-0.99-0.26l0.09,0.99l-16.1,1.5v22.9l16.89,1.59l-0.11,1.05l1.02-0.31l0.17,0.57
	c0.54,1.64,1.16,3.23,1.84,4.79c0.79,1.79,1.67,3.49,2.61,5.13l-0.88,0.54l0.77,0.65l-11,13.29l16.19,16.21l13.75-11.4l0.62,0.79
	l0.54-0.91l0.06,0.03c1.56,0.82,3.15,1.59,4.79,2.24c1.67,0.68,3.34,1.25,5.1,1.73l0.68,0.2l1.76,18.6h22.9l1.7-17.86l0.99,0.09
	l-0.28-0.99c1.76-0.51,3.46-1.08,5.13-1.76c1.67-0.68,3.32-1.45,4.9-2.3l0.48,0.91l0.62-0.77l13.75,11.4l16.19-16.21l-11.48-13.86
	l0.37-0.65c0.96-1.64,1.84-3.34,2.61-5.1c0.77-1.73,1.45-3.54,2.01-5.36l1.02,0.31l-0.09-1.05l16.87-1.59v-22.9l-16.1-1.5l0.09-1.02
	l-1.02,0.23c-0.51-2.04-1.13-4.03-1.9-5.95c-0.74-1.96-1.62-3.83-2.61-5.67v-0.03l0.91-0.48l-0.77-0.65l10.09-12.22l-16.19-16.19
	l-11.79,9.75l-0.62-0.77l-0.54,0.88C573.36,496.13,571.38,495.11,569.34,494.26L569.34,494.26z M504.77,567.11l-0.94,0.54
	L504.77,567.11z"/>
<path class="st4" d="M549.27,562.97c11.4,0,20.66-9.27,20.66-20.66c0-11.37-9.27-20.66-20.66-20.66c-11.37,0-20.66,9.3-20.66,20.66
	C528.61,553.7,537.9,562.97,549.27,562.97L549.27,562.97z"/>
<path class="st4" d="M627.88,601.94c11.42,0,20.66,9.24,20.66,20.66c0,11.4-9.24,20.66-20.66,20.66c-11.4,0-20.66-9.27-20.66-20.66
	C607.21,611.18,616.48,601.94,627.88,601.94L627.88,601.94z"/>
<path class="st0" d="M627.88,601.66c5.78,0,11.03,2.35,14.83,6.12c3.8,3.8,6.12,9.04,6.12,14.83s-2.32,11.03-6.12,14.8
	c-3.8,3.8-9.04,6.15-14.83,6.15c-5.78,0-11-2.35-14.8-6.15c-3.8-3.77-6.15-9.01-6.15-14.8s2.35-11.03,6.15-14.83
	C616.88,604.01,622.09,601.66,627.88,601.66L627.88,601.66z M642.3,608.18c-3.68-3.68-8.79-5.95-14.43-5.95
	c-5.61,0-10.71,2.27-14.4,5.95c-3.69,3.71-5.98,8.79-5.98,14.43c0,5.61,2.3,10.71,5.98,14.4c3.68,3.69,8.79,5.98,14.4,5.98
	c5.64,0,10.74-2.3,14.43-5.98c3.69-3.68,5.95-8.79,5.95-14.4C648.26,616.97,645.99,611.89,642.3,608.18L642.3,608.18z"/>
<path class="st4" d="M466.44,601.94c11.4,0,20.66,9.24,20.66,20.66c0,11.4-9.27,20.66-20.66,20.66c-11.42,0-20.66-9.27-20.66-20.66
	C445.78,611.18,455.02,601.94,466.44,601.94L466.44,601.94z"/>
<path class="st0" d="M466.44,601.66c5.78,0,11.03,2.35,14.8,6.12c3.8,3.8,6.15,9.04,6.15,14.83s-2.35,11.03-6.15,14.8
	c-3.77,3.8-9.01,6.15-14.8,6.15c-5.78,0-11.03-2.35-14.83-6.15c-3.77-3.77-6.12-9.01-6.12-14.8s2.35-11.03,6.12-14.83
	C455.42,604.01,460.66,601.66,466.44,601.66L466.44,601.66z M480.84,608.18c-3.69-3.68-8.79-5.95-14.4-5.95
	c-5.64,0-10.71,2.27-14.43,5.95c-3.69,3.71-5.95,8.79-5.95,14.43c0,5.61,2.27,10.71,5.95,14.4c3.71,3.69,8.79,5.98,14.43,5.98
	c5.61,0,10.71-2.3,14.4-5.98c3.69-3.68,5.98-8.79,5.98-14.4C486.82,616.97,484.53,611.89,480.84,608.18L480.84,608.18z"/>
</svg>
